<svg xmlns="http://www.w3.org/2000/svg" xmlns:xlink="http://www.w3.org/1999/xlink" viewBox="0,0,256,256" width="64px" height="64px" fill-rule="nonzero"><defs><linearGradient x1="34.083" y1="4.872" x2="29.773" y2="57.75" gradientUnits="userSpaceOnUse" id="color-1"><stop offset="0" stop-color="#ffffff"></stop><stop offset="1" stop-color="#ffffff"></stop></linearGradient><linearGradient x1="32.247" y1="10.462" x2="32.247" y2="54.005" gradientUnits="userSpaceOnUse" id="color-2"><stop offset="0" stop-color="#8ab4ff" stop-opacity="0"></stop><stop offset="1" stop-color="#e492ff" stop-opacity="0"></stop></linearGradient></defs><g fill="none" fill-rule="nonzero" stroke="none" stroke-width="1" stroke-linecap="butt" stroke-linejoin="miter" stroke-miterlimit="10" stroke-dasharray="" stroke-dashoffset="0" font-family="none" font-weight="none" font-size="none" text-anchor="none" style="mix-blend-mode: normal"><g transform="scale(4,4)"><path d="M37,58h-9c-0.552,0 -1,-0.448 -1,-1v-22h-7c-1.105,0 -2,-0.895 -2,-2v-7c0,-1.105 0.895,-2 2,-2h7v-5.494c0,-7.831 4.397,-12.506 11.763,-12.506c2.737,0 4.511,0.172 5.685,0.286v0c0.879,0.079 1.552,0.816 1.552,1.699v7.31c0,0.941 -0.763,1.705 -1.705,1.705l-3.684,0.002c-1.121,0 -1.859,0.17 -2.195,0.505c-0.422,0.422 -0.42,1.38 -0.417,2.594l0.001,3.899h6.721c1.196,0 2.125,1.044 1.987,2.232l-0.934,7c-0.118,1.008 -0.972,1.768 -1.987,1.768h-5.787v22c0,0.552 -0.448,1 -1,1zM29,56h7v-23h7.808l0.934,-7h-8.7l-0.042,-5.885c-0.004,-1.547 -0.008,-3.008 1.002,-4.02c0.744,-0.747 1.892,-1.095 3.611,-1.095l3.387,0.042v-6.812c-1.18,-0.114 -2.777,-0.252 -5.237,-0.252c-6.296,0 -9.763,3.731 -9.763,10.506v7.516h-9v7h9z" fill="url(#color-1)"></path><g fill="url(#color-2)"><path d="M31,54v-23h-9v-3h9v-9.494c0,-5.644 2.612,-8.506 7.763,-8.506c1.307,0 2.362,0.041 3.237,0.096v2.034h-1.398c-1.434,0 -3.517,0.174 -5.019,1.68c-1.593,1.598 -1.588,3.722 -1.583,5.43v8.76h8.495l-0.467,3h-8.028v23z"></path></g></g></g></svg>